<svg width="2400" height="856" viewBox="0 0 2400 856" fill="none" xmlns="http://www.w3.org/2000/svg">
<path d="M1105.21 674.7C1101.82 674.7 1096.01 673.732 1087.77 671.795C1080.03 669.857 1074.94 667.193 1072.52 663.803C1067.68 637.165 1063.8 609.317 1060.89 580.258C1057.99 550.714 1056.29 521.655 1055.81 493.08C1045.15 469.832 1034.5 444.647 1023.84 417.525C1013.19 390.403 1003.26 363.039 994.058 335.433C984.856 307.342 977.107 280.704 970.811 255.519C964.514 229.85 960.156 207.329 957.734 187.956L1020.94 158.171L1039.83 169.794C1039.83 213.868 1042.97 257.457 1049.27 300.561C1055.57 343.666 1064.77 384.591 1076.88 423.337C1079.3 418.494 1084.38 409.05 1092.13 395.004C1100.37 380.475 1110.3 363.523 1121.92 344.15C1133.54 324.293 1146.14 303.709 1159.7 282.399C1173.26 260.605 1186.82 239.779 1200.38 219.922C1213.94 199.58 1226.78 181.902 1238.88 166.888C1241.3 163.982 1245.91 161.561 1252.69 159.624C1259.95 157.686 1265.76 156.718 1270.12 156.718C1273.03 156.718 1274.48 157.928 1274.48 160.35C1274.48 162.772 1270.12 171.247 1261.4 185.777C1252.69 199.822 1241.55 218.227 1227.99 240.99C1214.42 263.269 1200.14 288.453 1185.12 316.544C1170.11 344.635 1156.06 373.694 1142.99 403.722C1129.91 433.75 1119.74 463.052 1112.47 491.627C1109.57 519.717 1108.12 551.44 1108.12 586.796C1108.12 619.246 1108.6 641.04 1109.57 652.179C1110.54 663.319 1111.02 670.099 1111.02 672.521C1111.02 673.974 1109.08 674.7 1105.21 674.7ZM1360.64 673.974C1337.4 673.974 1316.09 667.92 1296.71 655.812C1277.34 644.188 1261.84 626.995 1250.22 604.232C1238.59 580.984 1232.78 552.409 1232.78 518.506C1232.78 495.259 1237.14 471.527 1245.86 447.311C1255.06 423.095 1269.83 400.332 1290.17 379.022C1310.52 357.711 1337.88 339.791 1372.27 325.262C1406.65 310.732 1449.03 301.53 1499.4 297.655L1507.39 317.997L1472.52 357.954C1484.63 372.483 1494.32 389.192 1501.58 408.081C1509.33 426.97 1513.2 451.67 1513.2 482.182C1513.2 504.461 1510.06 526.982 1503.76 549.745C1497.95 572.508 1488.75 593.334 1476.15 612.223C1463.56 630.627 1447.58 645.399 1428.21 656.538C1409.32 668.162 1386.8 673.974 1360.64 673.974ZM1368.63 607.864C1389.94 607.864 1408.35 601.568 1423.85 588.975C1439.35 575.899 1451.21 560.4 1459.44 542.48C1467.68 524.56 1471.79 507.609 1471.79 491.627C1471.79 468.379 1469.37 444.889 1464.53 421.158C1459.69 397.426 1448.79 375.631 1431.84 355.774C1408.11 359.649 1386.07 368.366 1365.73 381.928C1345.39 395.489 1329.16 412.682 1317.05 433.508C1304.95 453.849 1298.89 477.097 1298.89 503.25C1298.89 533.278 1304.95 558.221 1317.05 578.078C1329.16 597.935 1346.36 607.864 1368.63 607.864ZM1597.89 672.521C1594.01 672.521 1592.07 671.31 1592.07 668.889C1605.15 613.191 1614.11 560.643 1618.95 511.242C1623.8 461.356 1626.22 415.83 1626.22 374.663C1626.22 342.697 1624.77 311.943 1621.86 282.399C1618.95 252.856 1615.32 226.218 1610.96 202.486C1606.6 178.27 1602.24 158.897 1597.89 144.367L1616.05 132.744L1674.17 160.35C1679.98 199.096 1682.4 240.99 1681.43 286.032C1680.95 331.074 1678.28 376.6 1673.44 422.611C1668.6 468.137 1662.3 511.484 1654.55 552.651C1647.29 593.819 1639.54 629.658 1631.3 660.171C1627.91 663.561 1622.59 666.467 1615.32 668.889C1608.06 671.31 1602.24 672.521 1597.89 672.521ZM2023.74 672.521C2020.35 672.521 2015.27 671.31 2008.48 668.889C2002.19 666.467 1997.35 663.561 1993.96 660.171C1988.14 637.408 1982.33 611.739 1976.52 583.163C1971.19 554.588 1965.86 524.318 1960.54 492.353C1947.46 526.256 1931.96 556.284 1914.04 582.437C1896.61 608.59 1878.2 629.174 1858.83 644.188C1839.94 658.718 1821.78 665.983 1804.34 665.983C1782.55 665.983 1766.57 658.233 1756.39 642.735C1746.71 627.237 1741.87 607.622 1741.87 583.89C1741.87 562.58 1745.5 539.332 1752.76 514.148C1760.03 488.963 1771.41 463.536 1786.91 437.867C1802.89 412.198 1823.47 388.224 1848.66 365.945C1874.33 343.182 1905.57 323.567 1942.37 307.1C1941.89 301.288 1941.65 295.476 1941.65 289.664C1941.65 283.368 1941.65 277.314 1941.65 271.502C1941.65 252.129 1942.13 233.241 1943.1 214.836C1944.55 195.948 1946.49 177.786 1948.91 160.35L2007.03 132.744L2025.19 144.367C2020.83 158.897 2016.48 178.27 2012.12 202.486C2007.76 226.218 2004.13 252.856 2001.22 282.399C1998.31 311.943 1996.86 342.697 1996.86 374.663C1996.86 415.83 1999.28 461.356 2004.13 511.242C2008.97 560.643 2017.44 613.191 2029.55 668.889C2029.55 671.31 2027.62 672.521 2023.74 672.521ZM1846.48 578.805C1861.49 578.805 1878.93 566.454 1898.79 541.754C1918.64 516.569 1936.32 479.034 1951.82 429.149C1950.37 415.104 1948.91 401.3 1947.46 387.739C1946.49 373.694 1945.52 359.891 1944.55 346.33C1912.59 360.86 1886.68 378.779 1866.82 400.09C1846.96 421.4 1832.43 443.194 1823.23 465.473C1814.51 487.268 1810.15 507.125 1810.15 525.045C1810.15 540.543 1812.58 553.378 1817.42 563.548C1822.75 573.719 1832.43 578.805 1846.48 578.805ZM2354.28 670.342C2350.89 670.342 2346.29 669.373 2340.48 667.436C2334.66 665.498 2330.31 663.077 2327.4 660.171C2318.68 640.314 2311.17 616.097 2304.88 587.522C2299.07 558.463 2294.22 529.888 2290.35 501.797C2276.79 533.763 2261.29 562.095 2243.85 586.796C2226.42 611.496 2208.5 630.869 2190.09 644.915C2172.17 658.96 2154.74 665.983 2137.79 665.983C2115.99 665.983 2100.01 658.233 2089.84 642.735C2080.15 627.237 2075.31 607.622 2075.31 583.89C2075.31 550.956 2081.61 520.686 2094.2 493.08C2106.79 464.989 2123.5 439.804 2144.33 417.525C2165.64 394.762 2188.64 375.147 2213.34 358.68C2238.53 341.729 2263.47 327.926 2288.17 317.27L2347.01 291.844L2364.45 302.014C2357.19 323.324 2351.37 348.994 2347.01 379.022C2342.66 409.05 2340.48 437.625 2340.48 464.747C2340.48 477.823 2340.96 494.048 2341.93 513.421C2343.38 532.794 2345.08 552.893 2347.01 573.719C2348.95 594.061 2350.89 612.949 2352.83 630.385C2355.25 647.336 2357.43 659.929 2359.36 668.162C2359.36 669.615 2357.67 670.342 2354.28 670.342ZM2179.92 578.805C2194.45 578.805 2211.4 566.939 2230.78 543.207C2250.15 519.475 2267.59 483.635 2283.08 435.687C2282.6 430.36 2282.36 425.517 2282.36 421.158C2282.36 416.314 2282.36 411.956 2282.36 408.081C2282.36 395.973 2282.36 385.56 2282.36 376.842C2282.36 368.124 2282.6 360.375 2283.08 353.595C2260.81 366.187 2239.01 380.717 2217.7 397.184C2196.39 413.166 2178.71 431.813 2164.67 453.123C2150.62 473.949 2143.6 497.923 2143.6 525.045C2143.6 540.543 2146.02 553.378 2150.86 563.548C2156.19 573.719 2165.88 578.805 2179.92 578.805Z" fill="#FF9556"/>
<path d="M1263.77 296.673C1297.33 226.651 1402.07 118.116 1552.62 244.156" stroke="#FF9556" stroke-width="43.7641" stroke-linecap="round"/>
<g clip-path="url(#clip0_3088_2663)">
<rect y="52.7793" width="750.641" height="750.641" rx="272.694" fill="#FF9556"/>
<path d="M396.966 686.748C393.463 686.748 387.458 685.748 378.951 683.746C370.944 681.744 365.69 678.992 363.187 675.489C358.183 647.965 354.18 619.191 351.177 589.165C348.175 558.639 346.423 528.613 345.923 499.088C334.913 475.067 323.904 449.045 312.894 421.021C301.885 392.997 291.626 364.723 282.118 336.199C272.61 307.174 264.603 279.65 258.098 253.628C251.592 227.106 247.088 203.836 244.586 183.819L309.892 153.042L329.409 165.053C329.409 210.591 332.661 255.63 339.167 300.168C345.672 344.706 355.181 386.992 367.691 427.026C370.193 422.022 375.448 412.264 383.455 397.751C391.962 382.739 402.221 365.224 414.231 345.207C426.241 324.689 439.252 303.421 453.264 281.402C467.276 258.883 481.288 237.364 495.3 216.847C509.312 195.829 522.574 177.563 535.084 162.05C537.586 159.047 542.341 156.545 549.346 154.544C556.853 152.542 562.858 151.541 567.362 151.541C570.364 151.541 571.866 152.792 571.866 155.294C571.866 157.796 567.362 166.554 558.354 181.567C549.346 196.079 537.837 215.095 523.825 238.615C509.813 261.635 495.05 287.657 479.537 316.682C464.024 345.707 449.511 375.733 436 406.759C422.488 437.786 411.979 468.061 404.473 497.587C401.47 526.612 399.969 559.39 399.969 595.921C399.969 629.449 400.469 651.969 401.47 663.478C402.471 674.988 402.971 681.994 402.971 684.496C402.971 685.998 400.97 686.748 396.966 686.748Z" fill="white"/>
</g>
<defs>
<clipPath id="clip0_3088_2663">
<rect y="52.7793" width="750.641" height="750.641" rx="272.694" fill="white"/>
</clipPath>
</defs>
</svg>
